<?xml version="1.0" encoding="utf-8"?>
<!-- Generator: Adobe Illustrator 16.0.0, SVG Export Plug-In . SVG Version: 6.00 Build 0)  -->
<!DOCTYPE svg PUBLIC "-//W3C//DTD SVG 1.1//EN" "http://www.w3.org/Graphics/SVG/1.1/DTD/svg11.dtd">
<svg version="1.1" id="Layer_1" xmlns="http://www.w3.org/2000/svg" xmlns:xlink="http://www.w3.org/1999/xlink" x="0px" y="0px"
	 width="552.777px" height="325.526px" viewBox="0 0 552.777 325.526" enable-background="new 0 0 552.777 325.526"
	 xml:space="preserve">
<path fill="#25C4F4" d="M380.15,178.954v-27.703v-10.216c0-7.618,5.397-10.734,11.996-6.926l8.848,5.108
	c6.6,3.809,17.396,10.041,23.993,13.853l8.844,5.107c6.598,3.809,6.598,10.043-0.003,13.854l-8.84,5.104
	c-6.599,3.81-17.395,10.043-23.994,13.852l-8.848,5.11c-6.599,3.808-11.996,0.69-11.996-6.928V178.954z"/>
<path fill="#25C4F4" d="M328.696,28.112c-9.834-4.264-25.771,3.661-25.771,3.661S198.957,85.314,183.136,93.067
	c-14.896,7.296-4.333,15.124-4.333,15.124c-11.054-4.636-10.563-13.23-10.563-13.23v-37.16c0-13.252,16.735-21.771,16.735-21.771
	s48.299-24.375,63.352-32.418c15.066-8.052,30.051-0.13,30.051-0.13L328.696,28.112z"/>
<path fill="#0097CF" d="M364.188,108.33c0,0,7.935,5.144,7.935-5.131V70.513c0,0,0.638-17.9-14.289-25.846
	c-5.383-2.854-14.527-7.873-25.024-13.185c0,0-12.019-5.675-32.443,4.869l-38.01,19.886L364.188,108.33z"/>
<path fill="#0097CF" d="M307.034,170.34c0,0-106.586-53.244-116.622-58.266l-4.308-2.122c-15.565-7.644-0.249-14.24-0.249-14.24
	l44.491-22.961l120.791,58.716c0,0,16.448,8.398,4.314,14.232C343.307,151.537,307.034,170.34,307.034,170.34"/>
<path fill="#0097CF" d="M280.63,184.172c0,0-26.655,13.55-45.514,23.272c-9.219,4.768-16.941,6.284-21.872,3.67
	c-12.146-6.429-23.206-11.91-28.069-14.505c-14.006-7.474-14.247-16.803-14.247-16.803v-39.918c0-11.208,12.131-4.438,12.131-4.438
	L280.63,184.172"/>
<path fill="#25C4F4" d="M356.062,132.404c0,0,14.125,8.75,3.212,14.233c-10.907,5.474-125.708,65.126-125.708,65.126
	s-13.366,4.084-17.379,2.011l49.947,25.793c0,0,11.169,7.038,27.159-1.459c17.705-9.416,65.812-35.208,65.812-35.208
	s12.113-5.253,12.021-22.593c-0.099-19.625-0.563-19.633-0.273-31.717C370.852,148.591,371.274,138.79,356.062,132.404"/>
<path fill="#25C4F4" d="M15.333,316.67c1.454,0,2.654-0.121,3.603-0.363c0.946-0.238,1.704-0.571,2.282-0.99
	c0.571-0.418,0.967-0.915,1.188-1.485c0.22-0.576,0.33-1.214,0.33-1.918c0-1.497-0.704-2.745-2.114-3.734
	c-1.41-0.992-3.833-2.061-7.271-3.205c-1.497-0.528-2.995-1.134-4.493-1.818c-1.499-0.681-2.842-1.543-4.032-2.577
	c-1.189-1.033-2.159-2.288-2.908-3.768c-0.75-1.477-1.123-3.27-1.123-5.386s0.396-4.021,1.188-5.719
	c0.793-1.695,1.917-3.137,3.372-4.326c1.454-1.189,3.216-2.105,5.287-2.747c2.068-0.636,4.404-0.954,7.005-0.954
	c3.082,0,5.75,0.33,7.997,0.989c2.25,0.661,4.097,1.39,5.552,2.184l-2.974,8.128c-1.278-0.661-2.701-1.246-4.262-1.752
	c-1.566-0.509-3.449-0.759-5.652-0.759c-2.468,0-4.241,0.341-5.321,1.022c-1.08,0.684-1.617,1.73-1.617,3.14
	c0,0.836,0.196,1.543,0.592,2.116c0.397,0.571,0.959,1.089,1.686,1.553c0.727,0.461,1.563,0.881,2.511,1.256
	c0.95,0.375,1.993,0.759,3.14,1.158c2.379,0.88,4.451,1.747,6.212,2.607c1.763,0.86,3.226,1.863,4.394,3.01
	c1.167,1.146,2.039,2.487,2.612,4.03c0.571,1.542,0.858,3.414,0.858,5.619c0,4.271-1.498,7.588-4.493,9.943
	c-2.997,2.358-7.513,3.538-13.549,3.538c-2.027,0-3.857-0.123-5.485-0.366c-1.631-0.242-3.072-0.538-4.328-0.891
	c-1.255-0.354-2.335-0.727-3.241-1.124c-0.902-0.395-1.663-0.77-2.278-1.122l2.907-8.196c1.366,0.748,3.05,1.421,5.055,2.015
	C9.967,316.373,12.424,316.67,15.333,316.67"/>
<polygon fill="#25C4F4" points="74.615,278.735 74.615,287.524 60.804,287.524 60.804,324.536 50.492,324.536 50.492,287.524 
	36.681,287.524 36.681,278.735 "/>
<path fill="#25C4F4" d="M94.376,316.67c1.455,0,2.654-0.121,3.603-0.363c0.946-0.238,1.705-0.571,2.282-0.99
	c0.571-0.418,0.967-0.915,1.188-1.485c0.22-0.576,0.331-1.214,0.331-1.918c0-1.497-0.705-2.745-2.115-3.734
	c-1.41-0.992-3.833-2.061-7.27-3.205c-1.498-0.528-2.996-1.134-4.494-1.818c-1.498-0.681-2.842-1.543-4.032-2.577
	c-1.189-1.033-2.159-2.288-2.907-3.768c-0.749-1.477-1.124-3.27-1.124-5.386s0.396-4.021,1.189-5.719
	c0.793-1.695,1.917-3.137,3.371-4.326c1.455-1.189,3.216-2.105,5.288-2.747c2.068-0.636,4.403-0.954,7.005-0.954
	c3.082,0,5.75,0.33,7.996,0.989c2.249,0.661,4.098,1.39,5.551,2.184l-2.974,8.128c-1.278-0.661-2.7-1.246-4.261-1.752
	c-1.566-0.509-3.45-0.759-5.653-0.759c-2.467,0-4.241,0.341-5.32,1.022c-1.08,0.684-1.616,1.73-1.616,3.14
	c0,0.836,0.196,1.543,0.592,2.116c0.396,0.571,0.959,1.089,1.685,1.553c0.727,0.461,1.564,0.881,2.512,1.256
	c0.95,0.375,1.993,0.759,3.14,1.158c2.379,0.88,4.451,1.747,6.213,2.607c1.763,0.86,3.226,1.863,4.394,3.01
	c1.168,1.146,2.039,2.487,2.612,4.03c0.571,1.542,0.859,3.414,0.859,5.619c0,4.271-1.497,7.588-4.494,9.943
	c-2.996,2.358-7.512,3.538-13.549,3.538c-2.026,0-3.857-0.123-5.485-0.366c-1.63-0.242-3.072-0.538-4.328-0.891
	c-1.255-0.354-2.335-0.727-3.241-1.124c-0.903-0.395-1.663-0.77-2.278-1.122l2.907-8.196c1.367,0.748,3.051,1.421,5.055,2.015
	C89.012,316.373,91.469,316.67,94.376,316.67"/>
<path fill="#25C4F4" d="M168.529,324.536c-0.751-1.982-1.456-3.931-2.117-5.848c-0.658-1.916-1.344-3.869-2.046-5.853h-20.752
	l-4.167,11.7h-6.675c1.762-4.846,3.415-9.329,4.959-13.447c1.542-4.124,3.047-8.033,4.525-11.733
	c1.477-3.702,2.943-7.239,4.396-10.61c1.455-3.368,2.972-6.704,4.558-10.01h5.884c1.586,3.306,3.106,6.642,4.558,10.01
	c1.456,3.371,2.92,6.908,4.398,10.61c1.474,3.7,2.983,7.609,4.523,11.733c1.544,4.118,3.195,8.602,4.959,13.447H168.529z
	 M162.515,307.55c-1.413-3.833-2.807-7.544-4.198-11.139c-1.388-3.591-2.832-7.036-4.327-10.342
	c-1.542,3.306-3.008,6.751-4.397,10.342c-1.388,3.595-2.765,7.306-4.131,11.139H162.515z"/>
<path fill="#25C4F4" d="M194.105,319.976c6.698,0,10.046-2.292,10.046-6.872c0-1.41-0.299-2.613-0.894-3.603
	c-0.595-0.994-1.399-1.852-2.413-2.579c-1.015-0.727-2.169-1.353-3.47-1.883c-1.3-0.53-2.676-1.059-4.131-1.586
	c-1.674-0.573-3.261-1.225-4.759-1.952c-1.498-0.724-2.797-1.584-3.896-2.576c-1.104-0.991-1.973-2.169-2.612-3.533
	c-0.639-1.368-0.958-3.021-0.958-4.959c0-4.01,1.364-7.137,4.099-9.386c2.729-2.245,6.499-3.369,11.299-3.369
	c2.778,0,5.299,0.294,7.571,0.892c2.267,0.597,3.929,1.246,4.988,1.95l-2.051,5.222c-0.925-0.573-2.301-1.135-4.129-1.687
	c-1.829-0.549-3.955-0.824-6.379-0.824c-1.233,0-2.377,0.132-3.437,0.395c-1.057,0.267-1.982,0.661-2.773,1.189
	c-0.795,0.53-1.423,1.2-1.885,2.016c-0.463,0.815-0.692,1.774-0.692,2.878c0,1.231,0.242,2.269,0.727,3.104
	c0.483,0.838,1.166,1.576,2.046,2.213c0.883,0.64,1.907,1.223,3.077,1.753c1.166,0.529,2.454,1.058,3.864,1.585
	c1.982,0.795,3.801,1.587,5.453,2.379c1.653,0.794,3.084,1.74,4.296,2.843s2.149,2.414,2.811,3.933
	c0.66,1.521,0.991,3.36,0.991,5.519c0,4.01-1.466,7.094-4.396,9.253c-2.93,2.157-7.062,3.237-12.391,3.237
	c-1.807,0-3.469-0.122-4.991-0.364c-1.52-0.242-2.875-0.527-4.063-0.858c-1.19-0.329-2.215-0.683-3.074-1.058
	c-0.859-0.372-1.53-0.692-2.015-0.957l1.917-5.286c1.011,0.57,2.553,1.211,4.626,1.916
	C188.573,319.623,191.107,319.976,194.105,319.976"/>
<path fill="#25C4F4" d="M229.926,319.976c6.697,0,10.046-2.292,10.046-6.872c0-1.41-0.298-2.613-0.894-3.603
	c-0.594-0.994-1.399-1.852-2.413-2.579c-1.014-0.727-2.169-1.353-3.47-1.883c-1.299-0.53-2.676-1.059-4.131-1.586
	c-1.674-0.573-3.26-1.225-4.758-1.952c-1.498-0.724-2.798-1.584-3.897-2.576c-1.104-0.991-1.972-2.169-2.612-3.533
	c-0.638-1.368-0.957-3.021-0.957-4.959c0-4.01,1.364-7.137,4.098-9.386c2.729-2.245,6.498-3.369,11.298-3.369
	c2.778,0,5.3,0.294,7.572,0.892c2.267,0.597,3.929,1.246,4.988,1.95l-2.05,5.222c-0.926-0.573-2.301-1.135-4.129-1.687
	c-1.83-0.549-3.956-0.824-6.38-0.824c-1.232,0-2.376,0.132-3.436,0.395c-1.058,0.267-1.982,0.661-2.774,1.189
	c-0.795,0.53-1.422,1.2-1.885,2.016s-0.692,1.774-0.692,2.878c0,1.231,0.242,2.269,0.727,3.104c0.483,0.838,1.166,1.576,2.047,2.213
	c0.883,0.64,1.907,1.223,3.076,1.753c1.166,0.529,2.454,1.058,3.864,1.585c1.982,0.795,3.801,1.587,5.454,2.379
	c1.652,0.794,3.084,1.74,4.295,2.843s2.149,2.414,2.811,3.933c0.66,1.521,0.99,3.36,0.99,5.519c0,4.01-1.465,7.094-4.396,9.253
	c-2.93,2.157-7.061,3.237-12.391,3.237c-1.806,0-3.468-0.122-4.991-0.364c-1.52-0.242-2.876-0.527-4.063-0.858
	c-1.19-0.329-2.215-0.683-3.075-1.058c-0.859-0.372-1.529-0.692-2.014-0.957l1.917-5.286c1.011,0.57,2.553,1.211,4.626,1.916
	C224.394,319.623,226.928,319.976,229.926,319.976"/>
<path fill="#25C4F4" d="M253.257,301.603c0-3.923,0.583-7.381,1.75-10.378c1.168-2.996,2.754-5.495,4.759-7.498
	c2.004-2.007,4.339-3.517,7.005-4.529c2.666-1.014,5.496-1.522,8.494-1.522c2.952,0,5.738,0.509,8.359,1.522
	c2.618,1.013,4.924,2.522,6.907,4.529c1.981,2.003,3.557,4.502,4.724,7.498c1.165,2.997,1.751,6.455,1.751,10.378
	c0,3.92-0.586,7.381-1.751,10.376c-1.167,2.998-2.742,5.497-4.724,7.5c-1.983,2.007-4.289,3.515-6.907,4.528
	c-2.621,1.013-5.408,1.52-8.359,1.52c-2.998,0-5.829-0.507-8.494-1.52c-2.666-1.014-5.001-2.521-7.005-4.528
	c-2.005-2.003-3.591-4.502-4.759-7.5C253.84,308.983,253.257,305.522,253.257,301.603 M259.999,301.603
	c0,2.773,0.352,5.298,1.054,7.567c0.706,2.271,1.709,4.195,3.01,5.783c1.298,1.584,2.884,2.808,4.758,3.669
	c1.872,0.856,3.976,1.287,6.311,1.287s4.428-0.431,6.279-1.287c1.852-0.861,3.426-2.085,4.725-3.669
	c1.301-1.588,2.302-3.513,3.009-5.783c0.704-2.27,1.058-4.794,1.058-7.567c0-2.777-0.354-5.299-1.058-7.567
	c-0.707-2.27-1.708-4.199-3.009-5.783c-1.299-1.588-2.873-2.808-4.725-3.669c-1.851-0.856-3.943-1.288-6.279-1.288
	s-4.439,0.432-6.311,1.288c-1.874,0.861-3.46,2.081-4.758,3.669c-1.301,1.584-2.304,3.514-3.01,5.783
	C260.351,296.304,259.999,298.825,259.999,301.603"/>
<path fill="#25C4F4" d="M326.881,325.526c-3.217,0-6.146-0.529-8.789-1.584c-2.645-1.058-4.913-2.602-6.809-4.628
	c-1.895-2.026-3.359-4.527-4.395-7.502c-1.036-2.973-1.552-6.377-1.552-10.21c0-3.834,0.582-7.238,1.75-10.209
	c1.167-2.977,2.743-5.477,4.727-7.502c1.981-2.026,4.295-3.572,6.939-4.629c2.643-1.056,5.463-1.585,8.459-1.585
	c1.894,0,3.603,0.131,5.122,0.396c1.518,0.265,2.842,0.57,3.965,0.926c1.124,0.352,2.038,0.705,2.743,1.058
	c0.704,0.352,1.189,0.616,1.454,0.792l-1.851,5.287c-0.397-0.262-0.97-0.55-1.718-0.859c-0.75-0.307-1.598-0.616-2.544-0.925
	c-0.951-0.31-1.983-0.563-3.107-0.76c-1.123-0.198-2.258-0.297-3.403-0.297c-2.424,0-4.604,0.419-6.542,1.257
	c-1.94,0.836-3.593,2.047-4.958,3.633s-2.412,3.513-3.14,5.782c-0.728,2.269-1.089,4.814-1.089,7.635
	c0,2.73,0.318,5.223,0.956,7.468c0.638,2.247,1.598,4.177,2.875,5.78c1.279,1.611,2.875,2.856,4.792,3.736
	c1.917,0.882,4.152,1.322,6.708,1.322c2.952,0,5.398-0.31,7.337-0.926c1.938-0.615,3.394-1.168,4.361-1.652l1.652,5.289
	c-0.31,0.219-0.858,0.492-1.652,0.824c-0.793,0.329-1.784,0.649-2.973,0.959c-1.189,0.309-2.578,0.573-4.164,0.794
	C330.451,325.416,328.731,325.526,326.881,325.526"/>
<rect x="348.823" y="278.733" fill="#25C4F4" width="6.411" height="45.801"/>
<path fill="#25C4F4" d="M397.862,324.536c-0.752-1.982-1.456-3.931-2.117-5.848c-0.658-1.916-1.343-3.869-2.047-5.853h-20.753
	l-4.164,11.7h-6.676c1.763-4.846,3.412-9.329,4.958-13.447c1.541-4.124,3.049-8.033,4.525-11.733
	c1.477-3.702,2.941-7.239,4.397-10.61c1.453-3.368,2.973-6.704,4.56-10.01h5.883c1.585,3.306,3.105,6.642,4.558,10.01
	c1.456,3.371,2.921,6.908,4.397,10.61c1.475,3.7,2.984,7.609,4.525,11.733c1.543,4.118,3.194,8.602,4.959,13.447H397.862z
	 M391.847,307.55c-1.411-3.833-2.808-7.544-4.196-11.139c-1.39-3.591-2.832-7.036-4.328-10.342
	c-1.543,3.306-3.008,6.751-4.397,10.342c-1.389,3.595-2.765,7.306-4.13,11.139H391.847z"/>
<polygon fill="#25C4F4" points="438.111,278.735 438.111,284.286 423.704,284.286 423.704,324.536 417.291,324.536 417.291,284.286 
	402.886,284.286 402.886,278.735 "/>
<rect x="445.513" y="278.733" fill="#25C4F4" width="6.409" height="45.801"/>
<path fill="#25C4F4" d="M462.103,301.603c0-3.923,0.583-7.381,1.75-10.378c1.168-2.996,2.753-5.495,4.759-7.498
	c2.004-2.007,4.34-3.517,7.005-4.529c2.666-1.014,5.496-1.522,8.494-1.522c2.952,0,5.739,0.509,8.36,1.522
	c2.618,1.013,4.924,2.522,6.907,4.529c1.98,2.003,3.556,4.502,4.724,7.498c1.165,2.997,1.75,6.455,1.75,10.378
	c0,3.92-0.585,7.381-1.75,10.376c-1.168,2.998-2.743,5.497-4.724,7.5c-1.983,2.007-4.289,3.515-6.907,4.528
	c-2.621,1.013-5.408,1.52-8.36,1.52c-2.998,0-5.828-0.507-8.494-1.52c-2.665-1.014-5.001-2.521-7.005-4.528
	c-2.006-2.003-3.591-4.502-4.759-7.5C462.686,308.983,462.103,305.522,462.103,301.603 M468.843,301.603
	c0,2.773,0.354,5.298,1.057,7.567c0.704,2.271,1.708,4.195,3.009,5.783c1.298,1.584,2.885,2.808,4.758,3.669
	c1.872,0.856,3.977,1.287,6.313,1.287c2.334,0,4.427-0.431,6.278-1.287c1.851-0.861,3.426-2.085,4.725-3.669
	c1.301-1.588,2.301-3.513,3.008-5.783c0.704-2.27,1.058-4.794,1.058-7.567c0-2.777-0.354-5.299-1.058-7.567
	c-0.707-2.27-1.707-4.199-3.008-5.783c-1.299-1.588-2.874-2.808-4.725-3.669c-1.852-0.856-3.944-1.288-6.278-1.288
	c-2.336,0-4.44,0.432-6.313,1.288c-1.873,0.861-3.46,2.081-4.758,3.669c-1.301,1.584-2.305,3.514-3.009,5.783
	C469.196,296.304,468.843,298.825,468.843,301.603"/>
<path fill="#25C4F4" d="M547.425,324.536c-0.969-1.629-2.082-3.459-3.337-5.487c-1.256-2.022-2.611-4.127-4.064-6.313
	c-1.455-2.178-2.965-4.395-4.528-6.64c-1.564-2.249-3.117-4.416-4.657-6.513c-1.544-2.089-3.041-4.062-4.496-5.914
	c-1.454-1.851-2.798-3.478-4.031-4.891v35.757h-6.278v-45.801h5.088c2.071,2.203,4.286,4.771,6.643,7.7s4.691,5.945,7.006,9.053
	c2.313,3.106,4.494,6.158,6.544,9.153c2.048,2.996,3.776,5.663,5.187,7.998v-33.904h6.278v45.801H547.425z"/>
</svg>
